<?xml version="1.0" encoding="UTF-8"?>
<svg width="67px" height="13px" viewBox="0 0 67 13" version="1.1" xmlns="http://www.w3.org/2000/svg" xmlns:xlink="http://www.w3.org/1999/xlink">
    <!-- Generator: Sketch 59.1 (86144) - https://sketch.com -->
    <title>Kabanero</title>
    <desc>Created with Sketch.</desc>
    <g id="Entire-Flow" stroke="none" stroke-width="1" fill="none" fill-rule="evenodd">
        <g id="ICAP-Directory-02" transform="translate(-613.000000, -194.000000)" fill="#FFFFFF" fill-rule="nonzero">
            <g id="Group-4" transform="translate(309.000000, 187.000000)">
                <path d="M304.232,19 L304.232,8.568 L306.584,8.568 L306.584,12.84 L306.648,12.84 L309.752,8.568 L312.344,8.568 L309.192,12.728 L312.92,19 L310.344,19 L307.8,14.6 L306.584,16.2 L306.584,19 L304.232,19 Z M315.864,19.192 C315.501332,19.192 315.173335,19.1306673 314.88,19.008 C314.586665,18.8853327 314.338668,18.7146678 314.136,18.496 C313.933332,18.2773322 313.776001,18.0240014 313.664,17.736 C313.551999,17.4479986 313.496,17.133335 313.496,16.792 C313.496,15.9599958 313.847996,15.3093357 314.552,14.84 C315.256004,14.3706643 316.391992,14.0560008 317.96,13.896 C317.938667,13.5439982 317.834668,13.264001 317.648,13.056 C317.461332,12.847999 317.149336,12.744 316.712,12.744 C316.370665,12.744 316.032002,12.8079994 315.696,12.936 C315.359998,13.0640006 315.000002,13.2399989 314.616,13.464 L313.768,11.912 C314.280003,11.6026651 314.815997,11.352001 315.376,11.16 C315.936003,10.967999 316.530664,10.872 317.16,10.872 C318.184005,10.872 318.965331,11.1626638 319.504,11.744 C320.042669,12.3253362 320.312,13.2293272 320.312,14.456 L320.312,19 L318.392,19 L318.232,18.184 L318.168,18.184 C317.826665,18.4826682 317.469335,18.7253324 317.096,18.912 C316.722665,19.0986676 316.312002,19.192 315.864,19.192 Z M316.664,17.368 C316.930668,17.368 317.159999,17.3093339 317.352,17.192 C317.544001,17.0746661 317.746666,16.9093344 317.96,16.696 L317.96,15.304 C317.127996,15.4213339 316.552002,15.5919989 316.232,15.816 C315.911998,16.0400011 315.752,16.3066651 315.752,16.616 C315.752,16.8720013 315.834666,17.0613327 316,17.184 C316.165334,17.3066673 316.386665,17.368 316.664,17.368 Z M326.456,19.192 C326.103998,19.192 325.749335,19.1040009 325.392,18.928 C325.034665,18.7519991 324.701335,18.493335 324.392,18.152 L324.328,18.152 L324.136,19 L322.296,19 L322.296,7.784 L324.648,7.784 L324.648,10.536 L324.584,11.752 C324.893335,11.4746653 325.226665,11.2586674 325.584,11.104 C325.941335,10.9493326 326.306665,10.872 326.68,10.872 C327.160002,10.872 327.591998,10.967999 327.976,11.16 C328.360002,11.352001 328.687999,11.6213316 328.96,11.968 C329.232001,12.3146684 329.439999,12.7359975 329.584,13.232 C329.728001,13.7280025 329.8,14.279997 329.8,14.888 C329.8,15.5706701 329.706668,16.178664 329.52,16.712 C329.333332,17.245336 329.082668,17.6959982 328.768,18.064 C328.453332,18.4320018 328.096002,18.711999 327.696,18.904 C327.296,19.096001 326.882669,19.192 326.456,19.192 Z M325.912,17.272 C326.317335,17.272 326.663999,17.0880018 326.952,16.72 C327.240001,16.3519982 327.384,15.7573374 327.384,14.936 C327.384,13.5066595 326.925338,12.792 326.008,12.792 C325.538664,12.792 325.085336,13.0319976 324.648,13.512 L324.648,16.76 C324.861334,16.952001 325.074666,17.085333 325.288,17.16 C325.501334,17.234667 325.709332,17.272 325.912,17.272 Z M333.464,19.192 C333.101332,19.192 332.773335,19.1306673 332.48,19.008 C332.186665,18.8853327 331.938668,18.7146678 331.736,18.496 C331.533332,18.2773322 331.376001,18.0240014 331.264,17.736 C331.151999,17.4479986 331.096,17.133335 331.096,16.792 C331.096,15.9599958 331.447996,15.3093357 332.152,14.84 C332.856004,14.3706643 333.991992,14.0560008 335.56,13.896 C335.538667,13.5439982 335.434668,13.264001 335.248,13.056 C335.061332,12.847999 334.749336,12.744 334.312,12.744 C333.970665,12.744 333.632002,12.8079994 333.296,12.936 C332.959998,13.0640006 332.600002,13.2399989 332.216,13.464 L331.368,11.912 C331.880003,11.6026651 332.415997,11.352001 332.976,11.16 C333.536003,10.967999 334.130664,10.872 334.76,10.872 C335.784005,10.872 336.565331,11.1626638 337.104,11.744 C337.642669,12.3253362 337.912,13.2293272 337.912,14.456 L337.912,19 L335.992,19 L335.832,18.184 L335.768,18.184 C335.426665,18.4826682 335.069335,18.7253324 334.696,18.912 C334.322665,19.0986676 333.912002,19.192 333.464,19.192 Z M334.264,17.368 C334.530668,17.368 334.759999,17.3093339 334.952,17.192 C335.144001,17.0746661 335.346666,16.9093344 335.56,16.696 L335.56,15.304 C334.727996,15.4213339 334.152002,15.5919989 333.832,15.816 C333.511998,16.0400011 333.352,16.3066651 333.352,16.616 C333.352,16.8720013 333.434666,17.0613327 333.6,17.184 C333.765334,17.3066673 333.986665,17.368 334.264,17.368 Z M339.896,19 L339.896,11.064 L341.816,11.064 L341.976,12.072 L342.04,12.072 C342.381335,11.7519984 342.754665,11.4720012 343.16,11.232 C343.565335,10.9919988 344.039997,10.872 344.584,10.872 C345.448004,10.872 346.074665,11.1546638 346.464,11.72 C346.853335,12.2853362 347.048,13.0693283 347.048,14.072 L347.048,19 L344.696,19 L344.696,14.376 C344.696,13.7999971 344.618667,13.4053344 344.464,13.192 C344.309333,12.9786656 344.061335,12.872 343.72,12.872 C343.421332,12.872 343.165334,12.938666 342.952,13.072 C342.738666,13.205334 342.504001,13.3946654 342.248,13.64 L342.248,19 L339.896,19 Z M352.6,19.192 C352.034664,19.192 351.506669,19.0986676 351.016,18.912 C350.525331,18.7253324 350.098668,18.4533351 349.736,18.096 C349.373332,17.7386649 349.090668,17.3040026 348.888,16.792 C348.685332,16.2799974 348.584,15.6933366 348.584,15.032 C348.584,14.3919968 348.690666,13.8133359 348.904,13.296 C349.117334,12.7786641 349.397332,12.3413351 349.744,11.984 C350.090668,11.6266649 350.487998,11.352001 350.936,11.16 C351.384002,10.967999 351.847998,10.872 352.328,10.872 C352.893336,10.872 353.386665,10.967999 353.808,11.16 C354.229335,11.352001 354.581332,11.618665 354.864,11.96 C355.146668,12.301335 355.357333,12.7039977 355.496,13.168 C355.634667,13.6320023 355.704,14.1359973 355.704,14.68 C355.704,14.8933344 355.693333,15.095999 355.672,15.288 L355.64,15.5400002 C355.629333,15.612 355.618667,15.6719998 355.608,15.72 L350.856,15.72 C350.962667,16.2960029 351.199998,16.7199986 351.568,16.992 C351.936002,17.2640014 352.386664,17.4 352.92,17.4 C353.485336,17.4 354.055997,17.2240018 354.632,16.872 L355.416,18.296 C355.010665,18.5733347 354.560002,18.7919992 354.064,18.952 C353.567998,19.1120008 353.080002,19.192 352.6,19.192 Z M350.84,14.168 L353.704,14.168 C353.704,13.7199978 353.602668,13.3573347 353.4,13.08 C353.197332,12.8026653 352.856002,12.664 352.376,12.664 C352.002665,12.664 351.674668,12.7866654 351.392,13.032 C351.109332,13.2773346 350.925334,13.6559974 350.84,14.168 Z M357.336,19 L357.336,11.064 L359.256,11.064 L359.416,12.456 L359.48,12.456 C359.768001,11.9119973 360.114665,11.5120013 360.52,11.256 C360.925335,10.9999987 361.330665,10.872 361.736,10.872 C361.960001,10.872 362.143999,10.8853332 362.288,10.912 C362.432001,10.9386668 362.562666,10.9786664 362.68,11.032 L362.296,13.064 C362.146666,13.0213331 362.008001,12.9893334 361.88,12.968 C361.751999,12.9466666 361.602668,12.936 361.432,12.936 C361.133332,12.936 360.821335,13.0426656 360.496,13.256 C360.170665,13.4693344 359.901334,13.8479973 359.688,14.392 L359.688,19 L357.336,19 Z M367.112,10.872 C367.613336,10.872 368.095998,10.9653324 368.56,11.152 C369.024002,11.3386676 369.434665,11.6079982 369.792,11.96 C370.149335,12.3120018 370.434666,12.7466641 370.648,13.264 C370.861334,13.7813359 370.968,14.3706634 370.968,15.032 C370.968,15.6933366 370.861334,16.2826641 370.648,16.8 C370.434666,17.3173359 370.149335,17.7519982 369.792,18.104 C369.434665,18.4560018 369.024002,18.7253324 368.56,18.912 C368.095998,19.0986676 367.613336,19.192 367.112,19.192 C366.610664,19.192 366.125336,19.0986676 365.656,18.912 C365.186664,18.7253324 364.773335,18.4560018 364.416,18.104 C364.058665,17.7519982 363.773334,17.3173359 363.56,16.8 C363.346666,16.2826641 363.24,15.6933366 363.24,15.032 C363.24,14.3706634 363.346666,13.7813359 363.56,13.264 C363.773334,12.7466641 364.058665,12.3120018 364.416,11.96 C364.773335,11.6079982 365.186664,11.3386676 365.656,11.152 C366.125336,10.9653324 366.610664,10.872 367.112,10.872 Z M367.112,12.776 C366.621331,12.776 366.256001,12.9786646 366.016,13.384 C365.775999,13.7893354 365.656,14.3386632 365.656,15.032 C365.656,15.7253368 365.775999,16.2746646 366.016,16.68 C366.256001,17.0853354 366.621331,17.288 367.112,17.288 C367.592002,17.288 367.954665,17.0853354 368.2,16.68 C368.445335,16.2746646 368.568,15.7253368 368.568,15.032 C368.568,14.3386632 368.445335,13.7893354 368.2,13.384 C367.954665,12.9786646 367.592002,12.776 367.112,12.776 Z" id="Kabanero"></path>
            </g>
        </g>
    </g>
</svg>